<?xml version="1.0" encoding="utf-8"?>
<!-- Svg Vector Icons : http://www.onlinewebfonts.com/icon -->
<!DOCTYPE svg PUBLIC "-//W3C//DTD SVG 1.1//EN" "http://www.w3.org/Graphics/SVG/1.1/DTD/svg11.dtd">
<svg version="1.1" xmlns="http://www.w3.org/2000/svg" xmlns:xlink="http://www.w3.org/1999/xlink" x="0px" y="0px" viewBox="0 0 256 256" enable-background="new 0 0 256 256" xml:space="preserve">
<metadata> Svg Vector Icons : http://www.onlinewebfonts.com/icon </metadata>
<g><g><path fill="#FFFFFF" d="M21.8,245.8c0,0-0.8,2.5,2.9-16.9c3.7-19.5,29.8-27.5,54.7-37C104.2,182.5,102,167,102,167s-25.2-1.2-44.8-16.8c5.3-6.5,6.3-7.8,10-19.9c3.8-12.1,3.8-41.3,3.8-57.6c0-16.4,5.9-32.7,15.6-42.5c12.8-12.9,30-19.2,39.1-19.9c14.4-2.2,28.3,6.7,28.3,6.7c5.8-1.1,13.2-0.9,24.1,9.2C190.7,38,193.7,57.9,193.7,74s0.1,47.9,1.1,56.4c1,8.5,1.3,14.4,6,22.7c-9.4,12.8-46.9,13.9-46.9,13.9s-2.2,15.5,22.7,24.9c24.9,9.4,51,17.5,54.7,37c3.7,19.5,2.9,16.9,2.9,16.9H128L21.8,245.8L21.8,245.8z"/></g></g>
</svg>