<?xml version="1.0" encoding="utf-8"?>
<!-- Svg Vector Icons : http://www.onlinewebfonts.com/icon -->
<!DOCTYPE svg PUBLIC "-//W3C//DTD SVG 1.1//EN" "http://www.w3.org/Graphics/SVG/1.1/DTD/svg11.dtd">
<svg version="1.1" xmlns="http://www.w3.org/2000/svg" xmlns:xlink="http://www.w3.org/1999/xlink" x="0px" y="0px" viewBox="0 0 256 256" enable-background="new 0 0 256 256" xml:space="preserve">
<metadata> Svg Vector Icons : http://www.onlinewebfonts.com/icon </metadata>
<g><g><g><path fill="#FFFFFF" d="M143.1,10.5c-8.8,1-19.5,4.6-24.8,8.3c-1,0.7-2.5,1-6.9,1.3c-28.5,2-41,12.5-42.1,35.2c-0.3,4.9,0.6,18.8,1.5,22.8c0.2,1,0,1.3-1.8,2.2c-3,1.5-5.2,3.6-6.7,6.7c-1.8,3.6-1.8,6.1,0,19.8c1.5,11.7,2.1,13.5,5.2,16.6c1.9,1.9,5.6,4.1,7,4.1c0.4,0,0.8,1.1,1.2,3.1c1.8,10.2,8.3,23.3,15.3,31.1l2.4,2.6l-1.8,6.8l-1.8,6.8l-21.2,5.3c-11.7,3-22.7,6-24.5,6.8c-19.4,8.2-32.4,26.6-33.6,47.9l-0.3,4.7l1.7,1.7l1.6,1.6l115-0.1l115-0.1l1.2-1.2c1.6-1.5,1.9-4.5,1.2-10.2c-2.6-19.8-15.3-36.6-33.3-44.1c-1.8-0.8-12.9-3.9-24.6-6.8l-21.2-5.3l-1.6-6.3l-1.6-6.3l2.4-2.7c7.6-8.8,13.8-20.8,15.8-30.7c0.9-4.3,0.9-4.3,3.2-5.4c2.8-1.3,5.9-4.4,7.1-7c1.2-2.9,3.7-21.7,3.5-26.7c-0.2-5.5-2.6-9.5-7-11.8c-2.4-1.3-2.3-0.4-1.7-12l0.4-7.3l2.7-3c6.1-6.8,8.1-12.8,6.5-20.1c-0.7-3.7-4.6-11.2-7.6-14.8c-6-7.2-15.2-11.8-26.6-13.2C157.8,10,147.8,10,143.1,10.5z"/></g></g></g>
</svg>